<svg xmlns="http://www.w3.org/2000/svg" viewBox="0 0 24 24" fill="#0CC0DF">
  <path d="M12 2.163c3.204 0 3.584.012 4.849.07 1.206.058 2.003.25 2.466.415a4.92 4.92 0 011.675 1.09 4.918 4.918 0 011.09 1.675c.165.463.357 1.26.415 2.466.058 1.265.069 1.645.069 4.849s-.012 3.584-.069 4.849c-.058 1.206-.25 2.003-.415 2.466a4.92 4.92 0 01-1.09 1.675 4.92 4.92 0 01-1.675 1.09c-.463.165-1.26.357-2.466.415-1.265.058-1.645.069-4.849.069s-3.584-.012-4.849-.069c-1.206-.058-2.003-.25-2.466-.415a4.92 4.92 0 01-1.675-1.09 4.918 4.918 0 01-1.09-1.675c-.165-.463-.357-1.26-.415-2.466-.058-1.265-.069-1.645-.069-4.849s.012-3.584.069-4.849c.058-1.206.25-2.003.415-2.466a4.92 4.92 0 011.09-1.675 4.92 4.92 0 011.675-1.09c.463-.165 1.26-.357 2.466-.415 1.265-.058 1.645-.069 4.849-.069zm0-2.163C8.756 0 8.332.012 7.052.07 5.773.128 4.785.328 4.024.602a7.07 7.07 0 00-2.534 1.622A7.073 7.073 0 00.602 4.024c-.274.761-.474 1.749-.532 3.028C0 8.332 0 8.756 0 12c0 3.244.012 3.668.07 4.948.058 1.279.258 2.267.532 3.028a7.07 7.07 0 001.622 2.534 7.073 7.073 0 002.534 1.622c.761.274 1.749.474 3.028.532C8.332 24 8.756 24 12 24c3.244 0 3.668-.012 4.948-.07 1.279-.058 2.267-.258 3.028-.532a7.07 7.07 0 002.534-1.622 7.07 7.07 0 001.622-2.534c.274-.761.474-1.749.532-3.028.058-1.28.07-1.704.07-4.948s-.012-3.668-.07-4.948c-.058-1.279-.258-2.267-.532-3.028a7.07 7.07 0 00-1.622-2.534 7.07 7.07 0 00-2.534-1.622c-.761-.274-1.749-.474-3.028-.532C15.668 0 15.244 0 12 0zM12 5.838a6.162 6.162 0 100 12.324 6.162 6.162 0 000-12.324zm0 10.162a3.999 3.999 0 110-7.998 3.999 3.999 0 010 7.998zm6.406-11.845a1.44 1.44 0 11-2.881 0 1.44 1.44 0 012.881 0z"/>
</svg>
