<svg xmlns="http://www.w3.org/2000/svg" viewBox="0 0 32 32" fill="#25D366">
  <path d="M16.001 3.2c-7.047 0-12.8 5.753-12.8 
  12.8 0 2.264.597 4.474 1.724 6.421l-1.828 
  6.657 6.823-1.789c1.89 1.033 4.027 1.58 
  6.08 1.58h.001c7.046 0 12.799-5.753 
  12.799-12.8S23.047 3.2 16.001 3.2zm6.79 
  17.985c-.28.785-1.631 1.533-2.244 1.628-.58.086-1.315.122-2.121-.133-.488-.155-1.111-.361-1.922-.705-3.38-1.449-5.592-4.964-5.762-5.193-.17-.228-1.376-1.832-1.376-3.497 
  0-1.665.865-2.488 1.172-2.833.306-.345.669-.431.892-.431.223 0 .446.003.642.012.208.009.48-.078.752.573.28.67.954 
  2.31 1.037 2.478.083.17.14.376.028.604-.112.228-.168.37-.329.569-.168.208-.352.464-.503.623-.168.17-.342.356-.147.702.195.345.867 
  1.427 1.863 2.308 1.279 1.137 2.354 1.488 2.699 1.657.345.17.544.152.748-.086.195-.228.86-1.004 
  1.09-1.348.223-.345.446-.286.752-.17.306.112 1.94.916 2.277 1.081.337.17.56.253.642.395.083.133.083.767-.197 
  1.553z"/>
</svg>
